<mxfile host="www.draw.io" modified="2020-03-10T13:19:03.956Z" agent="Mozilla/5.0 (Windows NT 10.0; Win64; x64) AppleWebKit/537.36 (KHTML, like Gecko) Chrome/79.0.3945.136 YaBrowser/20.2.4.141 Yowser/2.5 Safari/537.36" etag="8H_0vaPXP8aTtKW3fyvS" version="12.8.2" type="github">
  <diagram name="Page-1" id="c4acf3e9-155e-7222-9cf6-157b1a14988f">
    <mxGraphModel dx="1185" dy="661" grid="1" gridSize="10" guides="1" tooltips="1" connect="1" arrows="1" fold="1" page="1" pageScale="1" pageWidth="850" pageHeight="1100" background="#ffffff" math="0" shadow="0">
      <root>
        <mxCell id="0" />
        <mxCell id="1" parent="0" />
        <mxCell id="SWVM-3f822pB8PJmk4wf-4" value="InitGame" style="swimlane;fontStyle=1;align=center;verticalAlign=top;childLayout=stackLayout;horizontal=1;startSize=26;horizontalStack=0;resizeParent=1;resizeParentMax=0;resizeLast=0;collapsible=1;marginBottom=0;" vertex="1" parent="1">
          <mxGeometry x="40" y="120" width="160" height="200" as="geometry">
            <mxRectangle x="80" y="80" width="100" height="26" as="alternateBounds" />
          </mxGeometry>
        </mxCell>
        <mxCell id="SWVM-3f822pB8PJmk4wf-5" value="+ WIDTH = 1920&#xa;+ HEIGHT = 1080&#xa;+ fullscreen = 0&#xa;+ visiblemouse = True&#xa;+ rungame = True" style="text;strokeColor=#666666;fillColor=#f5f5f5;align=left;verticalAlign=top;spacingLeft=4;spacingRight=4;overflow=hidden;rotatable=0;points=[[0,0.5],[1,0.5]];portConstraint=eastwest;fontColor=#333333;" vertex="1" parent="SWVM-3f822pB8PJmk4wf-4">
          <mxGeometry y="26" width="160" height="84" as="geometry" />
        </mxCell>
        <mxCell id="SWVM-3f822pB8PJmk4wf-6" value="" style="line;strokeWidth=1;fillColor=none;align=left;verticalAlign=middle;spacingTop=-1;spacingLeft=3;spacingRight=3;rotatable=0;labelPosition=right;points=[];portConstraint=eastwest;" vertex="1" parent="SWVM-3f822pB8PJmk4wf-4">
          <mxGeometry y="110" width="160" height="1" as="geometry" />
        </mxCell>
        <mxCell id="SWVM-3f822pB8PJmk4wf-7" value="«initstart()»&#xa;+ centeredwindow()&#xa;+ preinitsound()&#xa;+ initwindow()&#xa;+ setvisisblemouse()" style="text;strokeColor=#666666;fillColor=#f5f5f5;align=left;verticalAlign=top;spacingLeft=4;spacingRight=4;overflow=hidden;rotatable=0;points=[[0,0.5],[1,0.5]];portConstraint=eastwest;fontColor=#333333;" vertex="1" parent="SWVM-3f822pB8PJmk4wf-4">
          <mxGeometry y="111" width="160" height="89" as="geometry" />
        </mxCell>
        <mxCell id="SWVM-3f822pB8PJmk4wf-25" value="ManageGame" style="swimlane;fontStyle=1;align=center;verticalAlign=top;childLayout=stackLayout;horizontal=1;startSize=26;horizontalStack=0;resizeParent=1;resizeParentMax=0;resizeLast=0;collapsible=1;marginBottom=0;" vertex="1" parent="1">
          <mxGeometry x="240" y="120" width="200" height="120" as="geometry">
            <mxRectangle x="280" y="80" width="120" height="26" as="alternateBounds" />
          </mxGeometry>
        </mxCell>
        <mxCell id="SWVM-3f822pB8PJmk4wf-26" value="+ scene = 0&#xa;+ gamewindow = GameWindow()&#xa;+ menuwindow = MenuWindow()" style="text;strokeColor=#666666;fillColor=#f5f5f5;align=left;verticalAlign=top;spacingLeft=4;spacingRight=4;overflow=hidden;rotatable=0;points=[[0,0.5],[1,0.5]];portConstraint=eastwest;fontColor=#333333;" vertex="1" parent="SWVM-3f822pB8PJmk4wf-25">
          <mxGeometry y="26" width="200" height="54" as="geometry" />
        </mxCell>
        <mxCell id="SWVM-3f822pB8PJmk4wf-27" value="" style="line;strokeWidth=1;fillColor=none;align=left;verticalAlign=middle;spacingTop=-1;spacingLeft=3;spacingRight=3;rotatable=0;labelPosition=right;points=[];portConstraint=eastwest;" vertex="1" parent="SWVM-3f822pB8PJmk4wf-25">
          <mxGeometry y="80" width="200" height="1" as="geometry" />
        </mxCell>
        <mxCell id="SWVM-3f822pB8PJmk4wf-28" value="+ update()" style="text;strokeColor=#666666;fillColor=#f5f5f5;align=left;verticalAlign=top;spacingLeft=4;spacingRight=4;overflow=hidden;rotatable=0;points=[[0,0.5],[1,0.5]];portConstraint=eastwest;fontColor=#333333;" vertex="1" parent="SWVM-3f822pB8PJmk4wf-25">
          <mxGeometry y="81" width="200" height="39" as="geometry" />
        </mxCell>
        <mxCell id="SWVM-3f822pB8PJmk4wf-46" value="Window" style="swimlane;fontStyle=3;align=center;verticalAlign=top;childLayout=stackLayout;horizontal=1;startSize=26;horizontalStack=0;resizeParent=1;resizeParentMax=0;resizeLast=0;collapsible=1;marginBottom=0;labelBackgroundColor=none;fillColor=#ffffff;" vertex="1" parent="1">
          <mxGeometry x="480" y="120" width="80" height="80" as="geometry">
            <mxRectangle x="520" y="80" width="100" height="26" as="alternateBounds" />
          </mxGeometry>
        </mxCell>
        <mxCell id="SWVM-3f822pB8PJmk4wf-47" value="+ run = True" style="text;strokeColor=#666666;fillColor=#f5f5f5;align=left;verticalAlign=top;spacingLeft=4;spacingRight=4;overflow=hidden;rotatable=0;points=[[0,0.5],[1,0.5]];portConstraint=eastwest;fontColor=#333333;fontStyle=2" vertex="1" parent="SWVM-3f822pB8PJmk4wf-46">
          <mxGeometry y="26" width="80" height="24" as="geometry" />
        </mxCell>
        <mxCell id="SWVM-3f822pB8PJmk4wf-48" value="" style="line;strokeWidth=1;fillColor=none;align=left;verticalAlign=middle;spacingTop=-1;spacingLeft=3;spacingRight=3;rotatable=0;labelPosition=right;points=[];portConstraint=eastwest;" vertex="1" parent="SWVM-3f822pB8PJmk4wf-46">
          <mxGeometry y="50" width="80" height="1" as="geometry" />
        </mxCell>
        <mxCell id="SWVM-3f822pB8PJmk4wf-49" value="+ start(FPS)" style="text;strokeColor=#666666;fillColor=#f5f5f5;align=left;verticalAlign=top;spacingLeft=4;spacingRight=4;overflow=hidden;rotatable=0;points=[[0,0.5],[1,0.5]];portConstraint=eastwest;fontColor=#333333;fontStyle=2" vertex="1" parent="SWVM-3f822pB8PJmk4wf-46">
          <mxGeometry y="51" width="80" height="29" as="geometry" />
        </mxCell>
        <mxCell id="SWVM-3f822pB8PJmk4wf-86" style="edgeStyle=orthogonalEdgeStyle;rounded=0;orthogonalLoop=1;jettySize=auto;html=1;exitX=0;exitY=0.5;exitDx=0;exitDy=0;entryX=0.5;entryY=1;entryDx=0;entryDy=0;" edge="1" parent="1" source="SWVM-3f822pB8PJmk4wf-72" target="SWVM-3f822pB8PJmk4wf-46">
          <mxGeometry relative="1" as="geometry" />
        </mxCell>
        <mxCell id="SWVM-3f822pB8PJmk4wf-72" value="MenuWindow(Window)" style="swimlane;fontStyle=1;align=center;verticalAlign=top;childLayout=stackLayout;horizontal=1;startSize=26;horizontalStack=0;resizeParent=1;resizeParentMax=0;resizeLast=0;collapsible=1;marginBottom=0;labelBackgroundColor=none;fillColor=#ffffff;" vertex="1" parent="1">
          <mxGeometry x="600" y="280" width="160" height="80" as="geometry">
            <mxRectangle x="640" y="200" width="160" height="26" as="alternateBounds" />
          </mxGeometry>
        </mxCell>
        <mxCell id="SWVM-3f822pB8PJmk4wf-73" value="" style="text;strokeColor=#666666;fillColor=#f5f5f5;align=left;verticalAlign=top;spacingLeft=4;spacingRight=4;overflow=hidden;rotatable=0;points=[[0,0.5],[1,0.5]];portConstraint=eastwest;fontColor=#333333;" vertex="1" parent="SWVM-3f822pB8PJmk4wf-72">
          <mxGeometry y="26" width="160" height="14" as="geometry" />
        </mxCell>
        <mxCell id="SWVM-3f822pB8PJmk4wf-74" value="" style="line;strokeWidth=1;fillColor=none;align=left;verticalAlign=middle;spacingTop=-1;spacingLeft=3;spacingRight=3;rotatable=0;labelPosition=right;points=[];portConstraint=eastwest;" vertex="1" parent="SWVM-3f822pB8PJmk4wf-72">
          <mxGeometry y="40" width="160" height="1" as="geometry" />
        </mxCell>
        <mxCell id="SWVM-3f822pB8PJmk4wf-75" value="+ preinit()&#xa;+ postinit()" style="text;strokeColor=#666666;fillColor=#f5f5f5;align=left;verticalAlign=top;spacingLeft=4;spacingRight=4;overflow=hidden;rotatable=0;points=[[0,0.5],[1,0.5]];portConstraint=eastwest;fontColor=#333333;" vertex="1" parent="SWVM-3f822pB8PJmk4wf-72">
          <mxGeometry y="41" width="160" height="39" as="geometry" />
        </mxCell>
        <mxCell id="SWVM-3f822pB8PJmk4wf-85" style="edgeStyle=orthogonalEdgeStyle;rounded=0;orthogonalLoop=1;jettySize=auto;html=1;exitX=0;exitY=0.5;exitDx=0;exitDy=0;entryX=1;entryY=0.5;entryDx=0;entryDy=0;" edge="1" parent="1" source="SWVM-3f822pB8PJmk4wf-77" target="SWVM-3f822pB8PJmk4wf-46">
          <mxGeometry relative="1" as="geometry" />
        </mxCell>
        <mxCell id="SWVM-3f822pB8PJmk4wf-77" value="GameWindow(Window)" style="swimlane;fontStyle=1;align=center;verticalAlign=top;childLayout=stackLayout;horizontal=1;startSize=26;horizontalStack=0;resizeParent=1;resizeParentMax=0;resizeLast=0;collapsible=1;marginBottom=0;labelBackgroundColor=none;fillColor=#ffffff;" vertex="1" parent="1">
          <mxGeometry x="600" y="120" width="160" height="80" as="geometry">
            <mxRectangle x="640" y="80" width="160" height="26" as="alternateBounds" />
          </mxGeometry>
        </mxCell>
        <mxCell id="SWVM-3f822pB8PJmk4wf-78" value="" style="text;strokeColor=#666666;fillColor=#f5f5f5;align=left;verticalAlign=top;spacingLeft=4;spacingRight=4;overflow=hidden;rotatable=0;points=[[0,0.5],[1,0.5]];portConstraint=eastwest;fontColor=#333333;" vertex="1" parent="SWVM-3f822pB8PJmk4wf-77">
          <mxGeometry y="26" width="160" height="14" as="geometry" />
        </mxCell>
        <mxCell id="SWVM-3f822pB8PJmk4wf-79" value="" style="line;strokeWidth=1;fillColor=none;align=left;verticalAlign=middle;spacingTop=-1;spacingLeft=3;spacingRight=3;rotatable=0;labelPosition=right;points=[];portConstraint=eastwest;" vertex="1" parent="SWVM-3f822pB8PJmk4wf-77">
          <mxGeometry y="40" width="160" height="1" as="geometry" />
        </mxCell>
        <mxCell id="SWVM-3f822pB8PJmk4wf-80" value="+ preinit()&#xa;+ postinit()" style="text;strokeColor=#666666;fillColor=#f5f5f5;align=left;verticalAlign=top;spacingLeft=4;spacingRight=4;overflow=hidden;rotatable=0;points=[[0,0.5],[1,0.5]];portConstraint=eastwest;fontColor=#333333;" vertex="1" parent="SWVM-3f822pB8PJmk4wf-77">
          <mxGeometry y="41" width="160" height="39" as="geometry" />
        </mxCell>
        <mxCell id="SWVM-3f822pB8PJmk4wf-90" style="edgeStyle=orthogonalEdgeStyle;rounded=0;orthogonalLoop=1;jettySize=auto;html=1;exitX=0;exitY=0.5;exitDx=0;exitDy=0;" edge="1" parent="1" source="SWVM-3f822pB8PJmk4wf-26" target="SWVM-3f822pB8PJmk4wf-4">
          <mxGeometry relative="1" as="geometry" />
        </mxCell>
        <mxCell id="SWVM-3f822pB8PJmk4wf-91" style="edgeStyle=orthogonalEdgeStyle;rounded=0;orthogonalLoop=1;jettySize=auto;html=1;exitX=0;exitY=0.5;exitDx=0;exitDy=0;" edge="1" parent="1" source="SWVM-3f822pB8PJmk4wf-47" target="SWVM-3f822pB8PJmk4wf-25">
          <mxGeometry relative="1" as="geometry" />
        </mxCell>
        <mxCell id="SWVM-3f822pB8PJmk4wf-100" style="edgeStyle=orthogonalEdgeStyle;rounded=0;orthogonalLoop=1;jettySize=auto;html=1;entryX=0.5;entryY=0;entryDx=0;entryDy=0;dashed=1;dashPattern=1 4;endArrow=openThin;endFill=0;" edge="1" parent="1" source="SWVM-3f822pB8PJmk4wf-92" target="SWVM-3f822pB8PJmk4wf-4">
          <mxGeometry relative="1" as="geometry" />
        </mxCell>
        <mxCell id="SWVM-3f822pB8PJmk4wf-92" value="Инициализация окна игры" style="text;html=1;align=center;verticalAlign=middle;resizable=0;points=[];autosize=1;fillColor=#fff2cc;strokeColor=#d6b656;" vertex="1" parent="1">
          <mxGeometry x="40" y="50" width="160" height="30" as="geometry" />
        </mxCell>
        <mxCell id="SWVM-3f822pB8PJmk4wf-120" style="edgeStyle=orthogonalEdgeStyle;rounded=0;orthogonalLoop=1;jettySize=auto;html=1;entryX=0.5;entryY=0;entryDx=0;entryDy=0;dashed=1;dashPattern=1 4;endArrow=openThin;endFill=0;" edge="1" parent="1" source="SWVM-3f822pB8PJmk4wf-107" target="SWVM-3f822pB8PJmk4wf-46">
          <mxGeometry relative="1" as="geometry" />
        </mxCell>
        <mxCell id="SWVM-3f822pB8PJmk4wf-107" value="Абстрактный&lt;br&gt;класс" style="text;html=1;align=center;verticalAlign=middle;resizable=0;points=[];autosize=1;fillColor=#fff2cc;strokeColor=#d6b656;labelBackgroundColor=none;" vertex="1" parent="1">
          <mxGeometry x="480" y="49.999999999999886" width="80" height="30" as="geometry" />
        </mxCell>
        <mxCell id="SWVM-3f822pB8PJmk4wf-123" style="edgeStyle=orthogonalEdgeStyle;rounded=0;orthogonalLoop=1;jettySize=auto;html=1;entryX=0.5;entryY=0;entryDx=0;entryDy=0;dashed=1;dashPattern=1 4;endArrow=openThin;endFill=0;" edge="1" parent="1" source="SWVM-3f822pB8PJmk4wf-108" target="SWVM-3f822pB8PJmk4wf-72">
          <mxGeometry relative="1" as="geometry" />
        </mxCell>
        <mxCell id="SWVM-3f822pB8PJmk4wf-124" style="edgeStyle=orthogonalEdgeStyle;rounded=0;orthogonalLoop=1;jettySize=auto;html=1;entryX=0.5;entryY=1;entryDx=0;entryDy=0;entryPerimeter=0;dashed=1;dashPattern=1 4;endArrow=openThin;endFill=0;" edge="1" parent="1" source="SWVM-3f822pB8PJmk4wf-108" target="SWVM-3f822pB8PJmk4wf-80">
          <mxGeometry relative="1" as="geometry" />
        </mxCell>
        <mxCell id="SWVM-3f822pB8PJmk4wf-108" value="Инициализация переменных&lt;br&gt;перед циклом и после цикла" style="text;html=1;align=center;verticalAlign=middle;resizable=0;points=[];autosize=1;fillColor=#fff2cc;strokeColor=#d6b656;labelBackgroundColor=none;" vertex="1" parent="1">
          <mxGeometry x="600" y="219.9999999999999" width="160" height="40" as="geometry" />
        </mxCell>
        <mxCell id="SWVM-3f822pB8PJmk4wf-114" style="edgeStyle=orthogonalEdgeStyle;rounded=0;orthogonalLoop=1;jettySize=auto;html=1;entryX=0.5;entryY=0;entryDx=0;entryDy=0;dashed=1;dashPattern=1 4;endArrow=openThin;endFill=0;" edge="1" parent="1" source="SWVM-3f822pB8PJmk4wf-111" target="SWVM-3f822pB8PJmk4wf-25">
          <mxGeometry relative="1" as="geometry" />
        </mxCell>
        <mxCell id="SWVM-3f822pB8PJmk4wf-111" value="Переключение между сценами&lt;br&gt;(Меню, игра)" style="text;html=1;align=center;verticalAlign=middle;resizable=0;points=[];autosize=1;fillColor=#fff2cc;strokeColor=#d6b656;labelBackgroundColor=none;" vertex="1" parent="1">
          <mxGeometry x="240" y="49.999999999999886" width="200" height="30" as="geometry" />
        </mxCell>
      </root>
    </mxGraphModel>
  </diagram>
</mxfile>
